<svg xmlns="http://www.w3.org/2000/svg" viewBox="-1906 40 30.005 30.1">
	  <g id="Reason_logo" data-name="Reason logo" transform="translate(-1906 40)">
	    <path id="Reason_logo-2" data-name="Reason logo" class="logo-color" d="M.4.4C.2.3,0,.4,0,.6V9.2c0,.1,0,.1.1.2L20.8,30a.349.349,0,0,0,.2.1h8.7c.2,0,.3-.2.2-.4Zm0,18.5a.271.271,0,0,0-.4.2V29.8a.215.215,0,0,0,.2.2H11c.2,0,.3-.2.2-.4ZM10.7,1.3,28.4,19a.247.247,0,0,0,.4-.1A13.193,13.193,0,0,0,30,13.7C30.2,6.1,23.8,0,16.2,0H9.9c-.2,0-.3.2-.2.4Z"></path>
	  </g>
	</svg>